<svg xmlns="http://www.w3.org/2000/svg" xmlns:xlink="http://www.w3.org/1999/xlink" width="500" zoomAndPan="magnify" viewBox="0 0 375 374.999991" height="500" preserveAspectRatio="xMidYMid meet" version="1.0"><defs><g/><clipPath id="9e05ddf395"><path d="M 59.132812 123.28125 L 137.882812 123.28125 L 137.882812 181 L 59.132812 181 Z M 59.132812 123.28125 " clip-rule="nonzero"/></clipPath><clipPath id="af58d2e9fd"><path d="M 115 175 L 137.882812 175 L 137.882812 193 L 115 193 Z M 115 175 " clip-rule="nonzero"/></clipPath><clipPath id="2a57c96cdd"><path d="M 59.132812 164 L 101 164 L 101 202 L 59.132812 202 Z M 59.132812 164 " clip-rule="nonzero"/></clipPath><clipPath id="34c5493326"><path d="M 96 165 L 136 165 L 136 204.28125 L 96 204.28125 Z M 96 165 " clip-rule="nonzero"/></clipPath></defs><g clip-path="url(#9e05ddf395)"><path fill="#7342d6" d="M 61.355469 152.421875 C 61.347656 152.476562 61.332031 152.527344 61.3125 152.582031 C 61.332031 152.527344 61.347656 152.476562 61.355469 152.421875 Z M 61.363281 152.355469 C 61.363281 152.453125 61.378906 152.789062 61.496094 153.238281 C 61.738281 154.152344 62.363281 154.980469 63.222656 155.5 L 96.773438 175.917969 C 96.71875 175.585938 96.691406 175.25 96.691406 174.902344 C 96.691406 171.613281 98.117188 169.34375 101.453125 167.308594 L 133.394531 147.863281 C 133.8125 147.609375 133.859375 147.179688 133.859375 147.011719 C 133.859375 146.839844 133.8125 146.414062 133.394531 146.15625 L 99.46875 125.5 L 65.191406 146.375 C 62.40625 148.070312 61.371094 149.660156 61.371094 152.246094 C 61.371094 152.28125 61.367188 152.320312 61.363281 152.355469 Z M 101.085938 180.210938 C 100.382812 180.210938 99.703125 180.023438 99.074219 179.640625 C 98.949219 179.5625 98.824219 179.480469 98.707031 179.386719 L 62.277344 157.214844 C 60.980469 156.429688 60.0625 155.203125 59.683594 153.769531 C 59.496094 153.058594 59.457031 152.570312 59.488281 152.238281 C 59.492188 148.953125 60.914062 146.6875 64.25 144.65625 L 99 123.496094 C 99.289062 123.320312 99.648438 123.320312 99.9375 123.496094 L 134.332031 144.441406 C 135.214844 144.976562 135.742188 145.9375 135.742188 147.011719 C 135.742188 148.082031 135.214844 149.046875 134.332031 149.578125 L 102.398438 169.027344 C 99.609375 170.726562 98.574219 172.316406 98.574219 174.902344 C 98.574219 176.074219 99.035156 177.15625 99.769531 177.746094 C 99.785156 177.757812 99.800781 177.773438 99.820312 177.789062 C 99.882812 177.835938 99.949219 177.878906 100.015625 177.921875 C 100.761719 178.375 101.648438 178.320312 102.574219 177.753906 L 134.878906 158.082031 L 132.253906 156.28125 C 131.820312 155.984375 131.699219 155.367188 131.980469 154.910156 C 132.265625 154.449219 132.847656 154.320312 133.28125 154.621094 L 137.1875 157.304688 C 137.460938 157.492188 137.625 157.816406 137.613281 158.160156 C 137.605469 158.507812 137.425781 158.824219 137.140625 158.992188 L 103.515625 179.472656 C 102.707031 179.964844 101.882812 180.210938 101.085938 180.210938 " fill-opacity="1" fill-rule="nonzero"/></g><g clip-path="url(#af58d2e9fd)"><path fill="#7342d6" d="M 116.804688 192.707031 C 116.480469 192.707031 116.164062 192.53125 115.988281 192.210938 C 115.730469 191.738281 115.882812 191.128906 116.332031 190.855469 L 134.878906 179.5625 L 132.253906 177.761719 C 131.820312 177.460938 131.699219 176.847656 131.980469 176.386719 C 132.265625 175.929688 132.847656 175.800781 133.28125 176.101562 L 137.1875 178.785156 C 137.460938 178.972656 137.625 179.296875 137.613281 179.644531 C 137.605469 179.988281 137.425781 180.300781 137.140625 180.472656 L 117.273438 192.574219 C 117.125 192.667969 116.964844 192.707031 116.804688 192.707031 " fill-opacity="1" fill-rule="nonzero"/></g><g clip-path="url(#2a57c96cdd)"><path fill="#7342d6" d="M 61.355469 173.902344 C 61.347656 173.957031 61.332031 174.011719 61.3125 174.0625 C 61.332031 174.011719 61.347656 173.957031 61.355469 173.902344 Z M 99.230469 201.03125 C 99.070312 201.03125 98.90625 200.988281 98.757812 200.898438 L 62.277344 178.699219 C 60.980469 177.90625 60.0625 176.683594 59.683594 175.25 C 59.496094 174.535156 59.457031 174.050781 59.488281 173.71875 C 59.492188 170.441406 60.910156 168.175781 64.226562 166.148438 L 65.808594 165.066406 C 66.246094 164.769531 66.828125 164.898438 67.113281 165.355469 C 67.394531 165.816406 67.273438 166.429688 66.835938 166.730469 L 65.234375 167.828125 C 65.21875 167.835938 65.207031 167.84375 65.191406 167.851562 C 62.40625 169.550781 61.371094 171.144531 61.371094 173.726562 C 61.371094 173.765625 61.367188 173.796875 61.363281 173.835938 C 61.363281 173.929688 61.378906 174.269531 61.496094 174.71875 C 61.738281 175.636719 62.363281 176.460938 63.222656 176.980469 L 99.703125 199.179688 C 100.152344 199.457031 100.304688 200.0625 100.042969 200.535156 C 99.871094 200.855469 99.550781 201.03125 99.230469 201.03125 " fill-opacity="1" fill-rule="nonzero"/></g><g clip-path="url(#34c5493326)"><path fill="#7342d6" d="M 110.378906 204.28125 C 110.222656 204.28125 110.058594 204.238281 109.917969 204.152344 C 109.625 203.980469 109.441406 203.648438 109.441406 203.289062 L 109.441406 197.386719 L 103.511719 200.953125 C 101.996094 201.878906 100.417969 201.9375 99.074219 201.117188 C 97.605469 200.222656 96.691406 198.410156 96.691406 196.382812 C 96.691406 193.09375 98.117188 190.824219 101.453125 188.789062 L 133.394531 169.34375 C 133.8125 169.085938 133.859375 168.664062 133.859375 168.492188 C 133.859375 168.316406 133.8125 167.894531 133.394531 167.636719 C 132.945312 167.363281 132.789062 166.757812 133.046875 166.28125 C 133.308594 165.808594 133.882812 165.648438 134.332031 165.917969 C 135.214844 166.457031 135.742188 167.417969 135.742188 168.492188 C 135.742188 169.5625 135.214844 170.523438 134.332031 171.0625 L 102.398438 190.511719 C 99.609375 192.203125 98.574219 193.796875 98.574219 196.382812 C 98.574219 197.683594 99.136719 198.867188 100.015625 199.402344 C 100.761719 199.855469 101.648438 199.800781 102.574219 199.234375 L 109.914062 194.820312 C 110.207031 194.644531 110.5625 194.648438 110.855469 194.824219 C 111.140625 195.003906 111.324219 195.332031 111.324219 195.679688 L 111.324219 201.542969 L 115.863281 198.671875 L 115.863281 191.714844 C 115.863281 190.339844 115.15625 189.058594 114.023438 188.375 C 113.570312 188.105469 113.417969 187.496094 113.671875 187.023438 C 113.929688 186.546875 114.503906 186.382812 114.953125 186.652344 C 116.675781 187.6875 117.746094 189.628906 117.746094 191.714844 L 117.746094 199.234375 C 117.746094 199.585938 117.570312 199.90625 117.285156 200.085938 L 110.863281 204.140625 C 110.714844 204.234375 110.546875 204.28125 110.378906 204.28125 " fill-opacity="1" fill-rule="nonzero"/></g><path fill="#7342d6" d="M 93.59375 163.402344 C 93.441406 163.402344 93.285156 163.363281 93.140625 163.277344 L 64.265625 146.382812 C 63.8125 146.117188 63.644531 145.511719 63.898438 145.035156 C 64.148438 144.554688 64.722656 144.378906 65.175781 144.644531 L 94.050781 161.539062 C 94.507812 161.804688 94.671875 162.410156 94.417969 162.890625 C 94.246094 163.214844 93.925781 163.402344 93.59375 163.402344 " fill-opacity="1" fill-rule="nonzero"/><path fill="#7342d6" d="M 81.503906 139.875 L 117.433594 139.875 L 99.46875 128.9375 Z M 81.503906 139.875 " fill-opacity="1" fill-rule="nonzero"/><g fill="#1e152a" fill-opacity="1"><g transform="translate(142.21731, 166.482433)"><g><path d="M 11.1875 -6.34375 L 21.9375 -6.34375 L 21.9375 0 L 2.96875 0 L 2.96875 -33.703125 L 11.1875 -33.703125 Z M 11.1875 -6.34375 "/></g></g></g><g fill="#1e152a" fill-opacity="1"><g transform="translate(165.107724, 166.482433)"><g><path d="M 7.109375 -29.5625 C 5.660156 -29.5625 4.476562 -29.984375 3.5625 -30.828125 C 2.65625 -31.679688 2.203125 -32.734375 2.203125 -33.984375 C 2.203125 -35.265625 2.65625 -36.328125 3.5625 -37.171875 C 4.476562 -38.023438 5.660156 -38.453125 7.109375 -38.453125 C 8.515625 -38.453125 9.671875 -38.023438 10.578125 -37.171875 C 11.492188 -36.328125 11.953125 -35.265625 11.953125 -33.984375 C 11.953125 -32.734375 11.492188 -31.679688 10.578125 -30.828125 C 9.671875 -29.984375 8.515625 -29.5625 7.109375 -29.5625 Z M 11.1875 -26.78125 L 11.1875 0 L 2.96875 0 L 2.96875 -26.78125 Z M 11.1875 -26.78125 "/></g></g></g><g fill="#1e152a" fill-opacity="1"><g transform="translate(179.264271, 166.482433)"><g><path d="M 11.1875 -22.984375 C 11.957031 -24.234375 13.0625 -25.242188 14.5 -26.015625 C 15.9375 -26.785156 17.582031 -27.171875 19.4375 -27.171875 C 21.644531 -27.171875 23.644531 -26.609375 25.4375 -25.484375 C 27.226562 -24.367188 28.644531 -22.769531 29.6875 -20.6875 C 30.726562 -18.601562 31.25 -16.1875 31.25 -13.4375 C 31.25 -10.6875 30.726562 -8.265625 29.6875 -6.171875 C 28.644531 -4.078125 27.226562 -2.457031 25.4375 -1.3125 C 23.644531 -0.175781 21.644531 0.390625 19.4375 0.390625 C 17.550781 0.390625 15.90625 0.015625 14.5 -0.734375 C 13.09375 -1.492188 11.988281 -2.5 11.1875 -3.75 L 11.1875 0 L 2.96875 0 L 2.96875 -35.515625 L 11.1875 -35.515625 Z M 22.890625 -13.4375 C 22.890625 -15.488281 22.320312 -17.097656 21.1875 -18.265625 C 20.050781 -19.429688 18.648438 -20.015625 16.984375 -20.015625 C 15.359375 -20.015625 13.976562 -19.421875 12.84375 -18.234375 C 11.707031 -17.054688 11.140625 -15.441406 11.140625 -13.390625 C 11.140625 -11.335938 11.707031 -9.71875 12.84375 -8.53125 C 13.976562 -7.351562 15.359375 -6.765625 16.984375 -6.765625 C 18.617188 -6.765625 20.007812 -7.363281 21.15625 -8.5625 C 22.3125 -9.769531 22.890625 -11.394531 22.890625 -13.4375 Z M 22.890625 -13.4375 "/></g></g></g><g fill="#1e152a" fill-opacity="1"><g transform="translate(211.848322, 166.482433)"><g><path d="M 11.1875 -22.3125 C 12.144531 -23.789062 13.34375 -24.953125 14.78125 -25.796875 C 16.21875 -26.648438 17.816406 -27.078125 19.578125 -27.078125 L 19.578125 -18.390625 L 17.328125 -18.390625 C 15.273438 -18.390625 13.738281 -17.945312 12.71875 -17.0625 C 11.695312 -16.1875 11.1875 -14.644531 11.1875 -12.4375 L 11.1875 0 L 2.96875 0 L 2.96875 -26.78125 L 11.1875 -26.78125 Z M 11.1875 -22.3125 "/></g></g></g><g fill="#1e152a" fill-opacity="1"><g transform="translate(232.387307, 166.482433)"><g><path d="M 1.34375 -13.4375 C 1.34375 -16.1875 1.863281 -18.601562 2.90625 -20.6875 C 3.945312 -22.769531 5.363281 -24.367188 7.15625 -25.484375 C 8.945312 -26.609375 10.945312 -27.171875 13.15625 -27.171875 C 15.039062 -27.171875 16.691406 -26.785156 18.109375 -26.015625 C 19.535156 -25.242188 20.632812 -24.234375 21.40625 -22.984375 L 21.40625 -26.78125 L 29.609375 -26.78125 L 29.609375 0 L 21.40625 0 L 21.40625 -3.796875 C 20.601562 -2.546875 19.488281 -1.535156 18.0625 -0.765625 C 16.644531 0.00390625 14.992188 0.390625 13.109375 0.390625 C 10.929688 0.390625 8.945312 -0.175781 7.15625 -1.3125 C 5.363281 -2.457031 3.945312 -4.078125 2.90625 -6.171875 C 1.863281 -8.265625 1.34375 -10.6875 1.34375 -13.4375 Z M 21.40625 -13.390625 C 21.40625 -15.441406 20.835938 -17.054688 19.703125 -18.234375 C 18.566406 -19.421875 17.179688 -20.015625 15.546875 -20.015625 C 13.921875 -20.015625 12.539062 -19.429688 11.40625 -18.265625 C 10.269531 -17.097656 9.703125 -15.488281 9.703125 -13.4375 C 9.703125 -11.394531 10.269531 -9.769531 11.40625 -8.5625 C 12.539062 -7.363281 13.921875 -6.765625 15.546875 -6.765625 C 17.179688 -6.765625 18.566406 -7.351562 19.703125 -8.53125 C 20.835938 -9.71875 21.40625 -11.335938 21.40625 -13.390625 Z M 21.40625 -13.390625 "/></g></g></g><g fill="#1e152a" fill-opacity="1"><g transform="translate(264.971358, 166.482433)"><g><path d="M 11.1875 -22.3125 C 12.144531 -23.789062 13.34375 -24.953125 14.78125 -25.796875 C 16.21875 -26.648438 17.816406 -27.078125 19.578125 -27.078125 L 19.578125 -18.390625 L 17.328125 -18.390625 C 15.273438 -18.390625 13.738281 -17.945312 12.71875 -17.0625 C 11.695312 -16.1875 11.1875 -14.644531 11.1875 -12.4375 L 11.1875 0 L 2.96875 0 L 2.96875 -26.78125 L 11.1875 -26.78125 Z M 11.1875 -22.3125 "/></g></g></g><g fill="#1e152a" fill-opacity="1"><g transform="translate(285.510343, 166.482433)"><g><path d="M 30.34375 -26.78125 L 13.53125 12.71875 L 4.703125 12.71875 L 10.84375 -0.90625 L -0.046875 -26.78125 L 9.125 -26.78125 L 15.3125 -10.03125 L 21.453125 -26.78125 Z M 30.34375 -26.78125 "/></g></g></g><g fill="#545454" fill-opacity="1"><g transform="translate(146.964341, 201.177485)"><g><path d="M 11.25 -16.65625 L 11.25 -14.890625 L 4.015625 -14.890625 L 4.015625 -9.265625 L 9.890625 -9.265625 L 9.890625 -7.5 L 4.015625 -7.5 L 4.015625 0 L 1.84375 0 L 1.84375 -16.65625 Z M 11.25 -16.65625 "/></g></g></g><g fill="#545454" fill-opacity="1"><g transform="translate(159.003584, 201.177485)"><g><path d="M 7.546875 0.21875 C 6.316406 0.21875 5.203125 -0.0546875 4.203125 -0.609375 C 3.210938 -1.171875 2.4375 -1.96875 1.875 -3 C 1.3125 -4.03125 1.03125 -5.21875 1.03125 -6.5625 C 1.03125 -7.90625 1.316406 -9.085938 1.890625 -10.109375 C 2.472656 -11.140625 3.265625 -11.929688 4.265625 -12.484375 C 5.273438 -13.035156 6.398438 -13.3125 7.640625 -13.3125 C 8.890625 -13.3125 10.015625 -13.035156 11.015625 -12.484375 C 12.015625 -11.929688 12.804688 -11.144531 13.390625 -10.125 C 13.972656 -9.101562 14.265625 -7.914062 14.265625 -6.5625 C 14.265625 -5.21875 13.960938 -4.03125 13.359375 -3 C 12.765625 -1.96875 11.957031 -1.171875 10.9375 -0.609375 C 9.914062 -0.0546875 8.785156 0.21875 7.546875 0.21875 Z M 7.546875 -1.703125 C 8.328125 -1.703125 9.0625 -1.882812 9.75 -2.25 C 10.4375 -2.613281 10.988281 -3.160156 11.40625 -3.890625 C 11.832031 -4.628906 12.046875 -5.519531 12.046875 -6.5625 C 12.046875 -7.613281 11.835938 -8.503906 11.421875 -9.234375 C 11.003906 -9.972656 10.460938 -10.519531 9.796875 -10.875 C 9.128906 -11.238281 8.40625 -11.421875 7.625 -11.421875 C 6.820312 -11.421875 6.085938 -11.238281 5.421875 -10.875 C 4.765625 -10.519531 4.238281 -9.972656 3.84375 -9.234375 C 3.445312 -8.503906 3.25 -7.613281 3.25 -6.5625 C 3.25 -5.5 3.441406 -4.597656 3.828125 -3.859375 C 4.222656 -3.128906 4.742188 -2.585938 5.390625 -2.234375 C 6.046875 -1.878906 6.765625 -1.703125 7.546875 -1.703125 Z M 7.546875 -1.703125 "/></g></g></g><g fill="#545454" fill-opacity="1"><g transform="translate(174.291507, 201.177485)"><g><path d="M 13.453125 -13.09375 L 13.453125 0 L 11.28125 0 L 11.28125 -1.9375 C 10.863281 -1.269531 10.285156 -0.75 9.546875 -0.375 C 8.804688 0 7.988281 0.1875 7.09375 0.1875 C 6.070312 0.1875 5.15625 -0.0195312 4.34375 -0.4375 C 3.53125 -0.863281 2.890625 -1.5 2.421875 -2.34375 C 1.953125 -3.1875 1.71875 -4.210938 1.71875 -5.421875 L 1.71875 -13.09375 L 3.875 -13.09375 L 3.875 -5.703125 C 3.875 -4.421875 4.195312 -3.429688 4.84375 -2.734375 C 5.5 -2.046875 6.394531 -1.703125 7.53125 -1.703125 C 8.6875 -1.703125 9.597656 -2.054688 10.265625 -2.765625 C 10.941406 -3.484375 11.28125 -4.53125 11.28125 -5.90625 L 11.28125 -13.09375 Z M 13.453125 -13.09375 "/></g></g></g><g fill="#545454" fill-opacity="1"><g transform="translate(189.579431, 201.177485)"><g><path d="M 8.21875 -13.328125 C 9.8125 -13.328125 11.097656 -12.84375 12.078125 -11.875 C 13.066406 -10.914062 13.5625 -9.53125 13.5625 -7.71875 L 13.5625 0 L 11.421875 0 L 11.421875 -7.40625 C 11.421875 -8.707031 11.09375 -9.703125 10.4375 -10.390625 C 9.78125 -11.085938 8.890625 -11.4375 7.765625 -11.4375 C 6.617188 -11.4375 5.707031 -11.078125 5.03125 -10.359375 C 4.351562 -9.648438 4.015625 -8.609375 4.015625 -7.234375 L 4.015625 0 L 1.84375 0 L 1.84375 -13.09375 L 4.015625 -13.09375 L 4.015625 -11.234375 C 4.441406 -11.898438 5.023438 -12.414062 5.765625 -12.78125 C 6.503906 -13.144531 7.320312 -13.328125 8.21875 -13.328125 Z M 8.21875 -13.328125 "/></g></g></g><g fill="#545454" fill-opacity="1"><g transform="translate(204.867355, 201.177485)"><g><path d="M 1.03125 -6.59375 C 1.03125 -7.925781 1.300781 -9.097656 1.84375 -10.109375 C 2.382812 -11.128906 3.128906 -11.914062 4.078125 -12.46875 C 5.023438 -13.03125 6.085938 -13.3125 7.265625 -13.3125 C 8.285156 -13.3125 9.234375 -13.070312 10.109375 -12.59375 C 10.984375 -12.125 11.648438 -11.507812 12.109375 -10.75 L 12.109375 -17.671875 L 14.3125 -17.671875 L 14.3125 0 L 12.109375 0 L 12.109375 -2.453125 C 11.679688 -1.679688 11.046875 -1.039062 10.203125 -0.53125 C 9.359375 -0.03125 8.367188 0.21875 7.234375 0.21875 C 6.078125 0.21875 5.023438 -0.0664062 4.078125 -0.640625 C 3.128906 -1.210938 2.382812 -2.015625 1.84375 -3.046875 C 1.300781 -4.085938 1.03125 -5.269531 1.03125 -6.59375 Z M 12.109375 -6.5625 C 12.109375 -7.550781 11.910156 -8.410156 11.515625 -9.140625 C 11.117188 -9.878906 10.582031 -10.441406 9.90625 -10.828125 C 9.226562 -11.222656 8.484375 -11.421875 7.671875 -11.421875 C 6.859375 -11.421875 6.113281 -11.226562 5.4375 -10.84375 C 4.769531 -10.457031 4.238281 -9.898438 3.84375 -9.171875 C 3.445312 -8.441406 3.25 -7.582031 3.25 -6.59375 C 3.25 -5.59375 3.445312 -4.71875 3.84375 -3.96875 C 4.238281 -3.226562 4.769531 -2.664062 5.4375 -2.28125 C 6.113281 -1.894531 6.859375 -1.703125 7.671875 -1.703125 C 8.484375 -1.703125 9.226562 -1.894531 9.90625 -2.28125 C 10.582031 -2.664062 11.117188 -3.226562 11.515625 -3.96875 C 11.910156 -4.71875 12.109375 -5.582031 12.109375 -6.5625 Z M 12.109375 -6.5625 "/></g></g></g><g fill="#545454" fill-opacity="1"><g transform="translate(221.015229, 201.177485)"><g><path d="M 13.78125 -7.046875 C 13.78125 -6.628906 13.757812 -6.191406 13.71875 -5.734375 L 3.25 -5.734375 C 3.332031 -4.441406 3.773438 -3.429688 4.578125 -2.703125 C 5.378906 -1.984375 6.351562 -1.625 7.5 -1.625 C 8.4375 -1.625 9.21875 -1.84375 9.84375 -2.28125 C 10.476562 -2.71875 10.925781 -3.300781 11.1875 -4.03125 L 13.515625 -4.03125 C 13.171875 -2.78125 12.472656 -1.757812 11.421875 -0.96875 C 10.367188 -0.175781 9.0625 0.21875 7.5 0.21875 C 6.257812 0.21875 5.148438 -0.0546875 4.171875 -0.609375 C 3.191406 -1.171875 2.421875 -1.96875 1.859375 -3 C 1.304688 -4.03125 1.03125 -5.21875 1.03125 -6.5625 C 1.03125 -7.914062 1.300781 -9.101562 1.84375 -10.125 C 2.382812 -11.144531 3.144531 -11.929688 4.125 -12.484375 C 5.101562 -13.035156 6.226562 -13.3125 7.5 -13.3125 C 8.738281 -13.3125 9.835938 -13.039062 10.796875 -12.5 C 11.753906 -11.957031 12.488281 -11.210938 13 -10.265625 C 13.519531 -9.316406 13.78125 -8.242188 13.78125 -7.046875 Z M 11.546875 -7.5 C 11.546875 -8.332031 11.359375 -9.046875 10.984375 -9.640625 C 10.617188 -10.234375 10.117188 -10.6875 9.484375 -11 C 8.859375 -11.3125 8.164062 -11.46875 7.40625 -11.46875 C 6.300781 -11.46875 5.363281 -11.113281 4.59375 -10.40625 C 3.820312 -9.707031 3.378906 -8.738281 3.265625 -7.5 Z M 11.546875 -7.5 "/></g></g></g><g fill="#545454" fill-opacity="1"><g transform="translate(235.825406, 201.177485)"><g><path d="M 1.03125 -6.59375 C 1.03125 -7.925781 1.300781 -9.097656 1.84375 -10.109375 C 2.382812 -11.128906 3.128906 -11.914062 4.078125 -12.46875 C 5.023438 -13.03125 6.085938 -13.3125 7.265625 -13.3125 C 8.285156 -13.3125 9.234375 -13.070312 10.109375 -12.59375 C 10.984375 -12.125 11.648438 -11.507812 12.109375 -10.75 L 12.109375 -17.671875 L 14.3125 -17.671875 L 14.3125 0 L 12.109375 0 L 12.109375 -2.453125 C 11.679688 -1.679688 11.046875 -1.039062 10.203125 -0.53125 C 9.359375 -0.03125 8.367188 0.21875 7.234375 0.21875 C 6.078125 0.21875 5.023438 -0.0664062 4.078125 -0.640625 C 3.128906 -1.210938 2.382812 -2.015625 1.84375 -3.046875 C 1.300781 -4.085938 1.03125 -5.269531 1.03125 -6.59375 Z M 12.109375 -6.5625 C 12.109375 -7.550781 11.910156 -8.410156 11.515625 -9.140625 C 11.117188 -9.878906 10.582031 -10.441406 9.90625 -10.828125 C 9.226562 -11.222656 8.484375 -11.421875 7.671875 -11.421875 C 6.859375 -11.421875 6.113281 -11.226562 5.4375 -10.84375 C 4.769531 -10.457031 4.238281 -9.898438 3.84375 -9.171875 C 3.445312 -8.441406 3.25 -7.582031 3.25 -6.59375 C 3.25 -5.59375 3.445312 -4.71875 3.84375 -3.96875 C 4.238281 -3.226562 4.769531 -2.664062 5.4375 -2.28125 C 6.113281 -1.894531 6.859375 -1.703125 7.671875 -1.703125 C 8.484375 -1.703125 9.226562 -1.894531 9.90625 -2.28125 C 10.582031 -2.664062 11.117188 -3.226562 11.515625 -3.96875 C 11.910156 -4.71875 12.109375 -5.582031 12.109375 -6.5625 Z M 12.109375 -6.5625 "/></g></g></g><g fill="#545454" fill-opacity="1"><g transform="translate(251.97328, 201.177485)"><g/></g></g><g fill="#545454" fill-opacity="1"><g transform="translate(258.351214, 201.177485)"><g><path d="M 0.90625 -15.296875 L 0.90625 -17.265625 L 5.40625 -17.265625 L 5.40625 0 L 3.203125 0 L 3.203125 -15.296875 Z M 0.90625 -15.296875 "/></g></g></g><g fill="#545454" fill-opacity="1"><g transform="translate(265.995176, 201.177485)"><g><path d="M 4.28125 -4.640625 C 4.4375 -3.722656 4.804688 -3.019531 5.390625 -2.53125 C 5.972656 -2.039062 6.753906 -1.796875 7.734375 -1.796875 C 9.054688 -1.796875 10.03125 -2.3125 10.65625 -3.34375 C 11.289062 -4.375 11.59375 -6.117188 11.5625 -8.578125 C 11.226562 -7.859375 10.671875 -7.296875 9.890625 -6.890625 C 9.109375 -6.484375 8.238281 -6.28125 7.28125 -6.28125 C 6.21875 -6.28125 5.265625 -6.5 4.421875 -6.9375 C 3.585938 -7.375 2.929688 -8.015625 2.453125 -8.859375 C 1.984375 -9.703125 1.75 -10.722656 1.75 -11.921875 C 1.75 -13.628906 2.238281 -15.003906 3.21875 -16.046875 C 4.207031 -17.085938 5.613281 -17.609375 7.4375 -17.609375 C 9.664062 -17.609375 11.226562 -16.882812 12.125 -15.4375 C 13.019531 -13.988281 13.46875 -11.828125 13.46875 -8.953125 C 13.46875 -6.953125 13.289062 -5.296875 12.9375 -3.984375 C 12.582031 -2.679688 11.976562 -1.6875 11.125 -1 C 10.269531 -0.3125 9.101562 0.03125 7.625 0.03125 C 6 0.03125 4.726562 -0.40625 3.8125 -1.28125 C 2.90625 -2.164062 2.390625 -3.285156 2.265625 -4.640625 Z M 7.640625 -8.125 C 8.710938 -8.125 9.585938 -8.453125 10.265625 -9.109375 C 10.953125 -9.773438 11.296875 -10.671875 11.296875 -11.796875 C 11.296875 -12.992188 10.960938 -13.957031 10.296875 -14.6875 C 9.628906 -15.425781 8.691406 -15.796875 7.484375 -15.796875 C 6.367188 -15.796875 5.476562 -15.441406 4.8125 -14.734375 C 4.15625 -14.035156 3.828125 -13.113281 3.828125 -11.96875 C 3.828125 -10.800781 4.148438 -9.867188 4.796875 -9.171875 C 5.453125 -8.472656 6.398438 -8.125 7.640625 -8.125 Z M 7.640625 -8.125 "/></g></g></g><g fill="#545454" fill-opacity="1"><g transform="translate(281.04422, 201.177485)"><g><path d="M 4.28125 -4.640625 C 4.4375 -3.722656 4.804688 -3.019531 5.390625 -2.53125 C 5.972656 -2.039062 6.753906 -1.796875 7.734375 -1.796875 C 9.054688 -1.796875 10.03125 -2.3125 10.65625 -3.34375 C 11.289062 -4.375 11.59375 -6.117188 11.5625 -8.578125 C 11.226562 -7.859375 10.671875 -7.296875 9.890625 -6.890625 C 9.109375 -6.484375 8.238281 -6.28125 7.28125 -6.28125 C 6.21875 -6.28125 5.265625 -6.5 4.421875 -6.9375 C 3.585938 -7.375 2.929688 -8.015625 2.453125 -8.859375 C 1.984375 -9.703125 1.75 -10.722656 1.75 -11.921875 C 1.75 -13.628906 2.238281 -15.003906 3.21875 -16.046875 C 4.207031 -17.085938 5.613281 -17.609375 7.4375 -17.609375 C 9.664062 -17.609375 11.226562 -16.882812 12.125 -15.4375 C 13.019531 -13.988281 13.46875 -11.828125 13.46875 -8.953125 C 13.46875 -6.953125 13.289062 -5.296875 12.9375 -3.984375 C 12.582031 -2.679688 11.976562 -1.6875 11.125 -1 C 10.269531 -0.3125 9.101562 0.03125 7.625 0.03125 C 6 0.03125 4.726562 -0.40625 3.8125 -1.28125 C 2.90625 -2.164062 2.390625 -3.285156 2.265625 -4.640625 Z M 7.640625 -8.125 C 8.710938 -8.125 9.585938 -8.453125 10.265625 -9.109375 C 10.953125 -9.773438 11.296875 -10.671875 11.296875 -11.796875 C 11.296875 -12.992188 10.960938 -13.957031 10.296875 -14.6875 C 9.628906 -15.425781 8.691406 -15.796875 7.484375 -15.796875 C 6.367188 -15.796875 5.476562 -15.441406 4.8125 -14.734375 C 4.15625 -14.035156 3.828125 -13.113281 3.828125 -11.96875 C 3.828125 -10.800781 4.148438 -9.867188 4.796875 -9.171875 C 5.453125 -8.472656 6.398438 -8.125 7.640625 -8.125 Z M 7.640625 -8.125 "/></g></g></g><g fill="#545454" fill-opacity="1"><g transform="translate(296.093265, 201.177485)"><g><path d="M 12.5 -15.390625 L 4.109375 -15.390625 L 4.109375 -9.9375 C 4.472656 -10.445312 5.015625 -10.863281 5.734375 -11.1875 C 6.453125 -11.519531 7.222656 -11.6875 8.046875 -11.6875 C 9.367188 -11.6875 10.441406 -11.410156 11.265625 -10.859375 C 12.097656 -10.304688 12.691406 -9.597656 13.046875 -8.734375 C 13.410156 -7.867188 13.59375 -6.945312 13.59375 -5.96875 C 13.59375 -4.820312 13.375 -3.796875 12.9375 -2.890625 C 12.507812 -1.984375 11.851562 -1.265625 10.96875 -0.734375 C 10.09375 -0.210938 9 0.046875 7.6875 0.046875 C 6.019531 0.046875 4.664062 -0.378906 3.625 -1.234375 C 2.59375 -2.097656 1.96875 -3.25 1.75 -4.6875 L 3.875 -4.6875 C 4.082031 -3.78125 4.519531 -3.070312 5.1875 -2.5625 C 5.851562 -2.050781 6.695312 -1.796875 7.71875 -1.796875 C 8.976562 -1.796875 9.925781 -2.171875 10.5625 -2.921875 C 11.195312 -3.679688 11.515625 -4.679688 11.515625 -5.921875 C 11.515625 -7.160156 11.195312 -8.117188 10.5625 -8.796875 C 9.925781 -9.472656 8.984375 -9.8125 7.734375 -9.8125 C 6.890625 -9.8125 6.15625 -9.609375 5.53125 -9.203125 C 4.90625 -8.796875 4.445312 -8.242188 4.15625 -7.546875 L 2.109375 -7.546875 L 2.109375 -17.296875 L 12.5 -17.296875 Z M 12.5 -15.390625 "/></g></g></g></svg>