<svg width="138" height="43" viewBox="0 0 138 43" fill="none" xmlns="http://www.w3.org/2000/svg">
<g clip-path="url(#clip0_6_2)">
<path d="M0.724074 15.2188C0.718865 15.25 0.713657 15.2761 0.703241 15.3073C0.713657 15.2761 0.718865 15.25 0.724074 15.2188ZM0.729283 15.1823C0.729283 15.2344 0.734491 15.4167 0.796991 15.6563C0.927199 16.1406 1.26053 16.5781 1.71887 16.8542L19.6095 27.6927C19.5834 27.5156 19.5678 27.3386 19.5678 27.1511C19.5678 25.4063 20.3282 24.2031 22.1095 23.125L39.1407 12.8021C39.3647 12.6615 39.3907 12.4375 39.3907 12.349C39.3907 12.2552 39.3647 12.0313 39.1407 11.8958L21.0522 0.927094L2.77095 12.0104C1.28657 12.9115 0.734491 13.7552 0.734491 15.125C0.734491 15.1458 0.729283 15.1667 0.729283 15.1823ZM21.9116 29.974C21.5366 29.974 21.172 29.8698 20.8387 29.6667C20.771 29.625 20.7084 29.5833 20.6459 29.5365L1.21887 17.7656C0.526158 17.349 0.0365748 16.6979 -0.166551 15.9375C-0.265509 15.5573 -0.286343 15.2969 -0.270717 15.1198C-0.270717 13.3802 0.4897 12.1771 2.26574 11.099L20.797 -0.135406C20.9532 -0.229157 21.146 -0.229157 21.3022 -0.135406L39.6407 10.9844C40.1147 11.2656 40.396 11.7761 40.396 12.349C40.396 12.9167 40.1147 13.4271 39.6407 13.7136L22.6095 24.0365C21.1251 24.9375 20.573 25.7813 20.573 27.1511C20.573 27.7761 20.8178 28.349 21.2085 28.6615C21.2189 28.6719 21.2293 28.6771 21.2345 28.6875C21.271 28.7083 21.3074 28.7344 21.3387 28.7552C21.7397 29 22.2137 28.9688 22.7085 28.6667L39.9324 18.224L38.5366 17.2708C38.3022 17.1094 38.2397 16.7813 38.3855 16.5417C38.5418 16.2969 38.8491 16.2292 39.0835 16.3854L41.1668 17.8125C41.3126 17.9115 41.396 18.0833 41.3907 18.2656C41.3855 18.4479 41.2918 18.6198 41.1407 18.7083L23.2085 29.5781C22.7762 29.8438 22.3387 29.974 21.9116 29.974Z" fill="#888888"/>
<path d="M30.2966 36.6042C30.1196 36.6042 29.9529 36.5104 29.8591 36.3437C29.7237 36.0885 29.8018 35.7708 30.0414 35.625L39.9321 29.6302L38.5362 28.6719C38.3018 28.5104 38.2393 28.1875 38.3852 27.9427C38.5414 27.6979 38.8487 27.6302 39.0831 27.7917L41.1664 29.2135C41.3123 29.3125 41.3956 29.4896 41.3904 29.6719C41.3852 29.8542 41.2914 30.0208 41.1404 30.1094L30.5466 36.5365C30.4633 36.5833 30.38 36.6042 30.2966 36.6042Z" fill="#888888"/>
<path d="M0.724074 26.625C0.718865 26.651 0.713657 26.6823 0.703241 26.7083C0.713657 26.6823 0.718865 26.651 0.724074 26.625ZM20.922 41.026C20.8387 41.026 20.7501 41 20.672 40.9531L1.21887 29.1667C0.526158 28.75 0.0365748 28.099 -0.166551 27.3385C-0.265509 26.9583 -0.286343 26.7031 -0.270717 26.526C-0.270717 24.7865 0.484491 23.5833 2.25532 22.5052L3.09907 21.9323C3.33345 21.776 3.64074 21.8437 3.79699 22.0833C3.94282 22.3333 3.88032 22.6563 3.64595 22.8177L2.79178 23.3958C2.78657 23.401 2.77616 23.4063 2.77095 23.4115C1.28657 24.3125 0.734491 25.1563 0.734491 26.5313C0.734491 26.5469 0.729283 26.5677 0.729283 26.5885C0.729283 26.6406 0.734491 26.8177 0.796991 27.0573C0.927199 27.5417 1.26053 27.9792 1.71887 28.2552L21.172 40.0417C21.4116 40.1875 21.4949 40.5104 21.3543 40.7604C21.2657 40.9323 21.0939 41.026 20.922 41.026Z" fill="#888888"/>
<path d="M26.87 42.75C26.7866 42.75 26.6981 42.7292 26.62 42.6823C26.4637 42.5886 26.37 42.4115 26.37 42.224V39.0886L23.2033 40.9844C22.396 41.474 21.5575 41.5052 20.8387 41.0729C20.0575 40.5938 19.5679 39.6354 19.5679 38.5573C19.5679 36.8125 20.3283 35.6042 22.1095 34.5261L39.1408 24.2031C39.3647 24.0677 39.3908 23.8386 39.3908 23.75C39.3908 23.6563 39.3647 23.4323 39.1408 23.2969C38.9012 23.1511 38.8179 22.8281 38.9585 22.5781C39.0939 22.3281 39.4012 22.2396 39.6408 22.3854C40.1147 22.6719 40.396 23.1823 40.396 23.75C40.396 24.3177 40.1147 24.8281 39.6408 25.1146L22.6095 35.4375C21.1252 36.3386 20.5731 37.1823 20.5731 38.5573C20.5731 39.2448 20.8752 39.875 21.3387 40.1615C21.7397 40.4011 22.2137 40.3698 22.7085 40.0729L26.62 37.7292C26.7762 37.6354 26.9689 37.6354 27.12 37.7292C27.2762 37.8229 27.37 38 27.37 38.1823V41.2969L29.7918 39.7708V36.0781C29.7918 35.349 29.4168 34.6719 28.8127 34.3073C28.5731 34.1615 28.4897 33.8386 28.6252 33.5886C28.7606 33.3333 29.0679 33.25 29.3075 33.3906C30.2241 33.9427 30.797 34.974 30.797 36.0781V40.0729C30.797 40.2552 30.7033 40.4271 30.5522 40.5208L27.1252 42.6771C27.047 42.724 26.9585 42.75 26.87 42.75Z" fill="#888888"/>
<path d="M17.9166 21.0469C17.8332 21.0469 17.7499 21.026 17.677 20.9844L2.27595 12.0104C2.03116 11.8698 1.94782 11.5521 2.08324 11.2969C2.21345 11.0417 2.52074 10.9531 2.76032 11.0937L18.1614 20.0625C18.4009 20.2031 18.4895 20.5208 18.3541 20.776C18.2655 20.9479 18.0937 21.0469 17.9166 21.0469Z" fill="#888888"/>
<path d="M11.4688 8.55729H30.6302L21.0521 2.75L11.4688 8.55729Z" fill="#888888"/>
<path d="M51.8076 19.4156H57.5576V22.7906H47.4326V4.81146H51.8076V19.4156Z" fill="#FDFCFF"/>
<path d="M61.8493 7.01982C61.0837 7.01982 60.4587 6.80107 59.9743 6.35315C59.4847 5.89482 59.2451 5.33232 59.2451 4.66565C59.2451 3.98857 59.4847 3.42607 59.9743 2.97815C60.4587 2.51982 61.0837 2.29065 61.8493 2.29065C62.5993 2.29065 63.2139 2.51982 63.7035 2.97815C64.1878 3.42607 64.4326 3.98857 64.4326 4.66565C64.4326 5.33232 64.1878 5.89482 63.7035 6.35315C63.2139 6.80107 62.5993 7.01982 61.8493 7.01982ZM64.016 8.49898V22.7907H59.641V8.49898H64.016Z" fill="#FDFCFF"/>
<path d="M71.5659 10.5198C71.9826 9.85315 72.5711 9.3219 73.3368 8.91565C74.0972 8.49898 74.9826 8.29065 75.9826 8.29065C77.1597 8.29065 78.2222 8.59273 79.1701 9.18648C80.1284 9.78544 80.8836 10.6396 81.4409 11.749C81.993 12.8636 82.2743 14.1552 82.2743 15.624C82.2743 17.0979 81.993 18.3948 81.4409 19.5198C80.8836 20.6344 80.1284 21.4938 79.1701 22.1031C78.2222 22.7021 77.1597 22.999 75.9826 22.999C74.967 22.999 74.0868 22.7959 73.3368 22.3948C72.5868 21.9938 71.993 21.4573 71.5659 20.7906V22.7906H67.1909V3.85315H71.5659V10.5198ZM77.8159 15.624C77.8159 14.5302 77.5086 13.6761 76.8993 13.0615C76.3003 12.4365 75.5555 12.124 74.6701 12.124C73.7951 12.124 73.0503 12.4365 72.4409 13.0615C71.842 13.6865 71.5451 14.5511 71.5451 15.6448C71.5451 16.7438 71.842 17.6136 72.4409 18.249C73.0503 18.874 73.7951 19.1865 74.6701 19.1865C75.5451 19.1865 76.2847 18.8688 76.8993 18.2281C77.5086 17.5927 77.8159 16.7229 77.8159 15.624Z" fill="#FDFCFF"/>
<path d="M88.9443 10.8948C89.4548 10.1031 90.0954 9.48854 90.861 9.04062C91.637 8.58229 92.4912 8.35312 93.4235 8.35312V12.9781H92.236C91.137 12.9781 90.3089 13.2177 89.7568 13.6865C89.2152 14.1604 88.9443 14.9885 88.9443 16.1656V22.7906H84.5693V8.49895H88.9443V10.8948Z" fill="#FDFCFF"/>
<path d="M94.6484 15.624C94.6484 14.1552 94.9245 12.8635 95.4818 11.749C96.0339 10.6396 96.7943 9.78541 97.7526 9.18645C98.7109 8.5927 99.7786 8.29062 100.961 8.29062C101.961 8.29062 102.841 8.49895 103.607 8.91562C104.367 9.32187 104.951 9.85312 105.357 10.5198V8.49895H109.732V22.7906H105.357V20.7698C104.924 21.4365 104.326 21.9781 103.565 22.3948C102.815 22.7958 101.94 22.999 100.94 22.999C99.7734 22.999 98.7109 22.7021 97.7526 22.1031C96.7943 21.4937 96.0339 20.6344 95.4818 19.5198C94.9245 18.3948 94.6484 17.0979 94.6484 15.624ZM105.357 15.6448C105.357 14.551 105.049 13.6865 104.44 13.0615C103.841 12.4365 103.107 12.124 102.232 12.124C101.367 12.124 100.633 12.4365 100.023 13.0615C99.4089 13.676 99.1068 14.5302 99.1068 15.624C99.1068 16.7229 99.4089 17.5927 100.023 18.2281C100.633 18.8687 101.367 19.1865 102.232 19.1865C103.107 19.1865 103.841 18.874 104.44 18.249C105.049 17.6135 105.357 16.7437 105.357 15.6448Z" fill="#FDFCFF"/>
<path d="M117.276 10.8948C117.787 10.1031 118.427 9.48854 119.193 9.04062C119.969 8.58229 120.823 8.35312 121.756 8.35312V12.9781H120.568C119.469 12.9781 118.641 13.2177 118.089 13.6865C117.547 14.1604 117.276 14.9885 117.276 16.1656V22.7906H112.901V8.49895H117.276V10.8948Z" fill="#FDFCFF"/>
<path d="M138.46 8.49896L129.501 29.5823H124.772L128.064 22.3115L122.251 8.49896H127.147L130.439 17.4365L133.71 8.49896H138.46Z" fill="#FDFCFF"/>
<path d="M52.3812 32.3988V33.3572H48.527V36.3572H51.652V37.2947H48.527V41.2947H47.3604V32.3988H52.3812Z" fill="#888888"/>
<path d="M56.8229 41.4197C56.1667 41.4197 55.5781 41.2738 55.0521 40.9822C54.5208 40.6801 54.1042 40.253 53.8021 39.7113C53.4948 39.1592 53.3438 38.5186 53.3438 37.7947C53.3438 37.0759 53.4948 36.4405 53.8021 35.8988C54.1198 35.3467 54.5417 34.9197 55.0729 34.628C55.6146 34.3363 56.2188 34.1905 56.8854 34.1905C57.5521 34.1905 58.1458 34.3363 58.6771 34.628C59.2188 34.9197 59.6406 35.3467 59.9479 35.8988C60.25 36.4405 60.4063 37.0759 60.4063 37.7947C60.4063 38.5186 60.2448 39.1592 59.9271 39.7113C59.6042 40.253 59.1771 40.6801 58.6354 40.9822C58.0938 41.2738 57.4896 41.4197 56.8229 41.4197ZM56.8229 40.3988C57.2396 40.3988 57.625 40.3051 57.9896 40.1072C58.3646 39.8988 58.6615 39.6019 58.8854 39.2113C59.1042 38.8259 59.2188 38.3519 59.2188 37.7947C59.2188 37.2269 59.1042 36.7478 58.8854 36.3572C58.6771 35.9717 58.3906 35.6801 58.0313 35.4822C57.6667 35.2894 57.2813 35.1905 56.8646 35.1905C56.4479 35.1905 56.0573 35.2894 55.6979 35.4822C55.349 35.6801 55.0625 35.9717 54.8438 36.3572C54.6354 36.7478 54.5313 37.2269 54.5313 37.7947C54.5313 38.3676 54.6354 38.8467 54.8438 39.2322C55.0521 39.6228 55.3281 39.9144 55.6771 40.1072C56.0208 40.3051 56.4063 40.3988 56.8229 40.3988Z" fill="#888888"/>
<path d="M68.1429 34.3155V41.2947H66.9762V40.253C66.7523 40.6176 66.4398 40.8988 66.0387 41.1072C65.6481 41.2999 65.2158 41.3988 64.7471 41.3988C64.2054 41.3988 63.7106 41.2894 63.2679 41.0655C62.8356 40.8311 62.4971 40.4926 62.2471 40.0447C61.9971 39.6019 61.8721 39.0551 61.8721 38.3988V34.3155H63.0179V38.253C63.0179 38.9353 63.1898 39.4613 63.5387 39.8363C63.8825 40.2113 64.3617 40.3988 64.9762 40.3988C65.5856 40.3988 66.07 40.2061 66.4346 39.8155C66.7939 39.4301 66.9762 38.8728 66.9762 38.1488V34.3155H68.1429Z" fill="#888888"/>
<path d="M73.505 34.1905C74.3488 34.1905 75.0363 34.4509 75.5675 34.9613C76.0936 35.4769 76.3592 36.2113 76.3592 37.1697V41.2947H75.2134V37.3363C75.2134 36.6436 75.0311 36.1176 74.6717 35.753C74.3228 35.378 73.8488 35.1905 73.255 35.1905C72.6405 35.1905 72.1561 35.3884 71.7967 35.7738C71.4321 36.1488 71.255 36.7061 71.255 37.4405V41.2947H70.0884V34.3155H71.255V35.2947C71.4738 34.9509 71.7811 34.6801 72.1717 34.4822C72.5728 34.2894 73.0155 34.1905 73.505 34.1905Z" fill="#888888"/>
<path d="M77.8042 37.7738C77.8042 37.0655 77.95 36.4405 78.2417 35.8988C78.5334 35.3572 78.9292 34.9405 79.4292 34.6488C79.9396 34.3468 80.5125 34.1905 81.1375 34.1905C81.6792 34.1905 82.1844 34.3155 82.6584 34.5655C83.1271 34.8155 83.4813 35.1488 83.7209 35.5655V31.8572H84.9084V41.2947H83.7209V39.9822C83.4969 40.3988 83.1584 40.7478 82.7 41.0238C82.2521 41.2895 81.7261 41.4197 81.1167 41.4197C80.5021 41.4197 79.9396 41.2686 79.4292 40.9613C78.9292 40.6436 78.5334 40.2113 78.2417 39.6697C77.95 39.1176 77.8042 38.4822 77.8042 37.7738ZM83.7209 37.7947C83.7209 37.2686 83.6167 36.8103 83.4084 36.4197C83.2 36.0186 82.9136 35.7113 82.5542 35.503C82.1896 35.2947 81.7886 35.1905 81.3459 35.1905C80.9136 35.1905 80.5177 35.2947 80.1584 35.503C79.8094 35.7113 79.5229 36.0134 79.3042 36.3988C79.0959 36.7895 78.9917 37.2478 78.9917 37.7738C78.9917 38.3155 79.0959 38.7895 79.3042 39.1905C79.5229 39.5811 79.8094 39.878 80.1584 40.0863C80.5177 40.2947 80.9136 40.3988 81.3459 40.3988C81.7886 40.3988 82.1896 40.2947 82.5542 40.0863C82.9136 39.878 83.2 39.5811 83.4084 39.1905C83.6167 38.7895 83.7209 38.3259 83.7209 37.7947Z" fill="#888888"/>
<path d="M93.229 37.5238C93.229 37.7478 93.2134 37.9822 93.1873 38.2322H87.604C87.6457 38.9301 87.88 39.4717 88.3123 39.8572C88.7394 40.2322 89.2603 40.4197 89.8748 40.4197C90.3748 40.4197 90.7915 40.3103 91.1248 40.0863C91.4686 39.8519 91.7082 39.5394 91.8332 39.1488H93.0832C92.9009 39.8155 92.5259 40.3676 91.9582 40.7947C91.4009 41.2113 90.7082 41.4197 89.8748 41.4197C89.2082 41.4197 88.6092 41.2738 88.0832 40.9822C87.5675 40.6801 87.1561 40.253 86.854 39.7113C86.5623 39.1592 86.4165 38.5186 86.4165 37.7947C86.4165 37.0759 86.5623 36.4405 86.854 35.8988C87.1457 35.3467 87.5467 34.9197 88.0623 34.628C88.5884 34.3363 89.1925 34.1905 89.8748 34.1905C90.5415 34.1905 91.1248 34.3363 91.6248 34.628C92.1353 34.9197 92.5311 35.3259 92.8123 35.8363C93.0884 36.3363 93.229 36.8988 93.229 37.5238ZM92.0415 37.2947C92.0415 36.8519 91.9373 36.4717 91.729 36.1488C91.5311 35.8311 91.2707 35.5863 90.9373 35.4197C90.604 35.253 90.2342 35.1697 89.8332 35.1697C89.2342 35.1697 88.729 35.3572 88.3123 35.7322C87.9061 36.1072 87.6769 36.628 87.6248 37.2947H92.0415Z" fill="#888888"/>
<path d="M94.3154 37.7738C94.3154 37.0655 94.4613 36.4405 94.7529 35.8988C95.0446 35.3572 95.4404 34.9405 95.9404 34.6488C96.4508 34.3468 97.0238 34.1905 97.6488 34.1905C98.1904 34.1905 98.6956 34.3155 99.1696 34.5655C99.6383 34.8155 99.9925 35.1488 100.232 35.5655V31.8572H101.42V41.2947H100.232V39.9822C100.008 40.3988 99.6696 40.7478 99.2113 41.0238C98.7633 41.2895 98.2373 41.4197 97.6279 41.4197C97.0133 41.4197 96.4508 41.2686 95.9404 40.9613C95.4404 40.6436 95.0446 40.2113 94.7529 39.6697C94.4613 39.1176 94.3154 38.4822 94.3154 37.7738ZM100.232 37.7947C100.232 37.2686 100.128 36.8103 99.9196 36.4197C99.7113 36.0186 99.4248 35.7113 99.0654 35.503C98.7008 35.2947 98.2998 35.1905 97.8571 35.1905C97.4248 35.1905 97.029 35.2947 96.6696 35.503C96.3206 35.7113 96.0342 36.0134 95.8154 36.3988C95.6071 36.7895 95.5029 37.2478 95.5029 37.7738C95.5029 38.3155 95.6071 38.7895 95.8154 39.1905C96.0342 39.5811 96.3206 39.878 96.6696 40.0863C97.029 40.2947 97.4248 40.3988 97.8571 40.3988C98.2998 40.3988 98.7008 40.2947 99.0654 40.0863C99.4248 39.878 99.7113 39.5811 99.9196 39.1905C100.128 38.7895 100.232 38.3259 100.232 37.7947Z" fill="#888888"/>
<path d="M106.267 33.128V32.0863H108.662V41.2947H107.496V33.128H106.267Z" fill="#888888"/>
<path d="M112.156 38.8155C112.239 39.3051 112.432 39.6801 112.739 39.9405C113.041 40.2061 113.458 40.3363 113.989 40.3363C114.698 40.3363 115.218 40.0655 115.552 39.5238C115.885 38.9718 116.041 38.0343 116.031 36.7113C115.849 37.102 115.552 37.4093 115.135 37.628C114.718 37.8363 114.26 37.9405 113.76 37.9405C113.187 37.9405 112.677 37.8259 112.218 37.5863C111.771 37.352 111.427 37.0134 111.177 36.5655C110.927 36.1228 110.802 35.5811 110.802 34.9405C110.802 34.0238 111.062 33.2895 111.593 32.7322C112.119 32.1801 112.864 31.8988 113.823 31.8988C115.015 31.8988 115.849 32.2895 116.323 33.0655C116.807 33.8311 117.052 34.9822 117.052 36.5238C117.052 37.5968 116.953 38.477 116.76 39.1697C116.578 39.8676 116.26 40.3988 115.802 40.7738C115.343 41.1384 114.718 41.3155 113.927 41.3155C113.062 41.3155 112.39 41.0811 111.906 40.6072C111.416 40.1384 111.14 39.5395 111.073 38.8155H112.156ZM113.948 36.9613C114.515 36.9613 114.979 36.7895 115.343 36.4405C115.703 36.0811 115.885 35.602 115.885 35.003C115.885 34.3676 115.703 33.852 115.343 33.4613C114.994 33.0603 114.5 32.8572 113.864 32.8572C113.265 32.8572 112.786 33.0447 112.427 33.4197C112.078 33.7947 111.906 34.2895 111.906 34.8988C111.906 35.5238 112.078 36.0238 112.427 36.3988C112.771 36.7738 113.281 36.9613 113.948 36.9613Z" fill="#888888"/>
<path d="M120.182 38.8155C120.265 39.3051 120.458 39.6801 120.765 39.9405C121.067 40.2061 121.484 40.3363 122.015 40.3363C122.723 40.3363 123.244 40.0655 123.578 39.5238C123.911 38.9718 124.067 38.0343 124.057 36.7113C123.875 37.102 123.578 37.4093 123.161 37.628C122.744 37.8363 122.286 37.9405 121.786 37.9405C121.213 37.9405 120.703 37.8259 120.244 37.5863C119.796 37.352 119.453 37.0134 119.203 36.5655C118.953 36.1228 118.828 35.5811 118.828 34.9405C118.828 34.0238 119.088 33.2895 119.619 32.7322C120.145 32.1801 120.89 31.8988 121.848 31.8988C123.041 31.8988 123.875 32.2895 124.348 33.0655C124.833 33.8311 125.078 34.9822 125.078 36.5238C125.078 37.5968 124.979 38.477 124.786 39.1697C124.604 39.8676 124.286 40.3988 123.828 40.7738C123.369 41.1384 122.744 41.3155 121.953 41.3155C121.088 41.3155 120.416 41.0811 119.932 40.6072C119.442 40.1384 119.166 39.5395 119.098 38.8155H120.182ZM121.973 36.9613C122.541 36.9613 123.005 36.7895 123.369 36.4405C123.729 36.0811 123.911 35.602 123.911 35.003C123.911 34.3676 123.729 33.852 123.369 33.4613C123.02 33.0603 122.526 32.8572 121.89 32.8572C121.291 32.8572 120.812 33.0447 120.453 33.4197C120.104 33.7947 119.932 34.2895 119.932 34.8988C119.932 35.5238 120.104 36.0238 120.453 36.3988C120.796 36.7738 121.307 36.9613 121.973 36.9613Z" fill="#888888"/>
<path d="M132.583 33.0863H128.104V35.9822C128.297 35.7217 128.583 35.503 128.958 35.3363C129.344 35.1592 129.76 35.0655 130.208 35.0655C130.917 35.0655 131.489 35.2113 131.937 35.503C132.38 35.7947 132.693 36.1801 132.875 36.6488C133.068 37.1072 133.167 37.5967 133.167 38.1072C133.167 38.7217 133.047 39.2686 132.812 39.753C132.588 40.2426 132.239 40.6228 131.771 40.8988C131.297 41.1801 130.713 41.3155 130.021 41.3155C129.13 41.3155 128.406 41.0863 127.854 40.628C127.297 40.1697 126.963 39.5603 126.854 38.7947H127.979C128.088 39.2842 128.323 39.6644 128.687 39.9405C129.047 40.2061 129.5 40.3363 130.042 40.3363C130.708 40.3363 131.208 40.1384 131.542 39.7322C131.885 39.3311 132.062 38.7947 132.062 38.128C132.062 37.4613 131.885 36.9509 131.542 36.5863C131.208 36.2269 130.708 36.0447 130.042 36.0447C129.594 36.0447 129.208 36.1592 128.875 36.378C128.542 36.6019 128.292 36.8988 128.125 37.2738H127.042V32.0655H132.583V33.0863Z" fill="#888888"/>
</g>
<defs>
<clipPath id="clip0_6_2">
<rect width="138" height="43" fill="white"/>
</clipPath>
</defs>
</svg>
