<svg xmlns="http://www.w3.org/2000/svg" xmlns:xlink="http://www.w3.org/1999/xlink" width="200" zoomAndPan="magnify" viewBox="0 0 150 149.999998" height="200" preserveAspectRatio="xMidYMid meet" version="1.0"><defs><g/><clipPath id="ca4d543633"><path d="M 23.652344 49.3125 L 55.152344 49.3125 L 55.152344 72 L 23.652344 72 Z M 23.652344 49.3125 " clip-rule="nonzero"/></clipPath><clipPath id="1a071b610d"><path d="M 46 70 L 55.152344 70 L 55.152344 77 L 46 77 Z M 46 70 " clip-rule="nonzero"/></clipPath><clipPath id="4b1a23695a"><path d="M 23.652344 65 L 41 65 L 41 81 L 23.652344 81 Z M 23.652344 65 " clip-rule="nonzero"/></clipPath><clipPath id="4c14c93687"><path d="M 38 66 L 55 66 L 55 81.5625 L 38 81.5625 Z M 38 66 " clip-rule="nonzero"/></clipPath></defs><g clip-path="url(#ca4d543633)"><path fill="#7342d6" d="M 24.542969 60.914062 C 24.539062 60.9375 24.535156 60.957031 24.527344 60.980469 C 24.535156 60.957031 24.539062 60.9375 24.542969 60.914062 Z M 24.546875 60.886719 C 24.546875 60.925781 24.550781 61.0625 24.597656 61.242188 C 24.695312 61.605469 24.945312 61.933594 25.289062 62.140625 L 38.707031 70.269531 C 38.6875 70.136719 38.675781 70.003906 38.675781 69.863281 C 38.675781 68.554688 39.246094 67.652344 40.582031 66.84375 L 53.355469 59.101562 C 53.523438 58.996094 53.542969 58.828125 53.542969 58.761719 C 53.542969 58.691406 53.523438 58.523438 53.355469 58.421875 L 39.789062 50.195312 L 26.078125 58.507812 C 24.964844 59.183594 24.550781 59.816406 24.550781 60.84375 C 24.550781 60.859375 24.546875 60.875 24.546875 60.886719 Z M 40.433594 71.980469 C 40.152344 71.980469 39.878906 71.902344 39.628906 71.75 C 39.578125 71.71875 39.53125 71.6875 39.484375 71.652344 L 24.914062 62.824219 C 24.394531 62.511719 24.027344 62.023438 23.875 61.453125 C 23.800781 61.167969 23.785156 60.972656 23.796875 60.839844 C 23.796875 59.535156 24.367188 58.632812 25.699219 57.824219 L 39.597656 49.398438 C 39.714844 49.328125 39.859375 49.328125 39.976562 49.398438 L 53.730469 57.738281 C 54.085938 57.949219 54.296875 58.332031 54.296875 58.761719 C 54.296875 59.1875 54.085938 59.570312 53.730469 59.785156 L 40.957031 67.527344 C 39.84375 68.203125 39.429688 68.835938 39.429688 69.863281 C 39.429688 70.332031 39.613281 70.761719 39.90625 70.996094 C 39.914062 71.003906 39.921875 71.007812 39.925781 71.015625 C 39.953125 71.03125 39.980469 71.050781 40.003906 71.066406 C 40.304688 71.25 40.660156 71.226562 41.03125 71 L 53.949219 63.167969 L 52.902344 62.453125 C 52.726562 62.332031 52.679688 62.085938 52.789062 61.90625 C 52.90625 61.722656 53.136719 61.671875 53.3125 61.789062 L 54.875 62.859375 C 54.984375 62.933594 55.046875 63.0625 55.042969 63.199219 C 55.039062 63.335938 54.96875 63.464844 54.855469 63.53125 L 41.40625 71.683594 C 41.082031 71.882812 40.753906 71.980469 40.433594 71.980469 " fill-opacity="1" fill-rule="nonzero"/></g><g clip-path="url(#1a071b610d)"><path fill="#7342d6" d="M 46.722656 76.953125 C 46.589844 76.953125 46.464844 76.882812 46.394531 76.757812 C 46.292969 76.566406 46.351562 76.328125 46.53125 76.21875 L 53.949219 71.722656 L 52.902344 71.003906 C 52.726562 70.882812 52.679688 70.640625 52.789062 70.457031 C 52.90625 70.273438 53.136719 70.222656 53.3125 70.34375 L 54.875 71.410156 C 54.984375 71.484375 55.046875 71.617188 55.042969 71.753906 C 55.039062 71.890625 54.96875 72.015625 54.855469 72.082031 L 46.910156 76.902344 C 46.847656 76.9375 46.785156 76.953125 46.722656 76.953125 " fill-opacity="1" fill-rule="nonzero"/></g><g clip-path="url(#4b1a23695a)"><path fill="#7342d6" d="M 24.542969 69.46875 C 24.539062 69.488281 24.535156 69.511719 24.527344 69.53125 C 24.535156 69.511719 24.539062 69.488281 24.542969 69.46875 Z M 39.691406 80.269531 C 39.628906 80.269531 39.5625 80.25 39.503906 80.214844 L 24.914062 71.375 C 24.394531 71.0625 24.027344 70.574219 23.875 70.003906 C 23.800781 69.71875 23.785156 69.527344 23.796875 69.394531 C 23.796875 68.089844 24.363281 67.1875 25.691406 66.378906 L 26.324219 65.949219 C 26.5 65.832031 26.730469 65.882812 26.847656 66.0625 C 26.957031 66.25 26.910156 66.492188 26.734375 66.613281 L 26.09375 67.046875 C 26.089844 67.050781 26.082031 67.054688 26.078125 67.058594 C 24.964844 67.734375 24.550781 68.367188 24.550781 69.398438 C 24.550781 69.410156 24.546875 69.425781 24.546875 69.441406 C 24.546875 69.480469 24.550781 69.613281 24.597656 69.792969 C 24.695312 70.15625 24.945312 70.484375 25.289062 70.691406 L 39.878906 79.53125 C 40.058594 79.640625 40.121094 79.882812 40.015625 80.070312 C 39.949219 80.199219 39.820312 80.269531 39.691406 80.269531 " fill-opacity="1" fill-rule="nonzero"/></g><g clip-path="url(#4c14c93687)"><path fill="#7342d6" d="M 44.152344 81.5625 C 44.089844 81.5625 44.023438 81.546875 43.964844 81.511719 C 43.847656 81.441406 43.777344 81.308594 43.777344 81.167969 L 43.777344 78.816406 L 41.402344 80.238281 C 40.796875 80.605469 40.167969 80.628906 39.628906 80.304688 C 39.042969 79.945312 38.675781 79.226562 38.675781 78.417969 C 38.675781 77.109375 39.246094 76.203125 40.582031 75.394531 L 53.355469 67.652344 C 53.523438 67.550781 53.542969 67.378906 53.542969 67.3125 C 53.542969 67.242188 53.523438 67.074219 53.355469 66.972656 C 53.175781 66.863281 53.113281 66.621094 53.21875 66.433594 C 53.320312 66.246094 53.550781 66.179688 53.730469 66.289062 C 54.085938 66.503906 54.296875 66.886719 54.296875 67.3125 C 54.296875 67.738281 54.085938 68.121094 53.730469 68.335938 L 40.957031 76.078125 C 39.84375 76.753906 39.429688 77.386719 39.429688 78.417969 C 39.429688 78.933594 39.65625 79.40625 40.003906 79.621094 C 40.304688 79.800781 40.660156 79.777344 41.03125 79.554688 L 43.964844 77.796875 C 44.082031 77.726562 44.226562 77.726562 44.339844 77.796875 C 44.457031 77.867188 44.527344 78 44.527344 78.136719 L 44.527344 80.472656 L 46.34375 79.328125 L 46.34375 76.558594 C 46.34375 76.011719 46.0625 75.503906 45.609375 75.230469 C 45.429688 75.121094 45.367188 74.878906 45.46875 74.691406 C 45.570312 74.5 45.800781 74.4375 45.980469 74.542969 C 46.667969 74.957031 47.097656 75.730469 47.097656 76.558594 L 47.097656 79.554688 C 47.097656 79.691406 47.027344 79.820312 46.914062 79.890625 L 44.34375 81.507812 C 44.285156 81.542969 44.21875 81.5625 44.152344 81.5625 " fill-opacity="1" fill-rule="nonzero"/></g><path fill="#7342d6" d="M 37.4375 65.285156 C 37.375 65.285156 37.3125 65.269531 37.257812 65.238281 L 25.707031 58.507812 C 25.523438 58.402344 25.460938 58.164062 25.5625 57.972656 C 25.660156 57.78125 25.890625 57.714844 26.070312 57.820312 L 37.621094 64.546875 C 37.800781 64.652344 37.867188 64.890625 37.765625 65.082031 C 37.699219 65.210938 37.570312 65.285156 37.4375 65.285156 " fill-opacity="1" fill-rule="nonzero"/><path fill="#7342d6" d="M 32.601562 55.917969 L 46.972656 55.917969 L 39.789062 51.5625 Z M 32.601562 55.917969 " fill-opacity="1" fill-rule="nonzero"/><g fill="#1e152a" fill-opacity="1"><g transform="translate(58.38692, 66.592971)"><g><path d="M 4.46875 -2.53125 L 8.78125 -2.53125 L 8.78125 0 L 1.1875 0 L 1.1875 -13.484375 L 4.46875 -13.484375 Z M 4.46875 -2.53125 "/></g></g></g><g fill="#1e152a" fill-opacity="1"><g transform="translate(67.543086, 66.592971)"><g><path d="M 2.84375 -11.828125 C 2.269531 -11.828125 1.800781 -11.992188 1.4375 -12.328125 C 1.070312 -12.671875 0.890625 -13.09375 0.890625 -13.59375 C 0.890625 -14.101562 1.070312 -14.523438 1.4375 -14.859375 C 1.800781 -15.203125 2.269531 -15.375 2.84375 -15.375 C 3.40625 -15.375 3.867188 -15.203125 4.234375 -14.859375 C 4.597656 -14.523438 4.78125 -14.101562 4.78125 -13.59375 C 4.78125 -13.09375 4.597656 -12.671875 4.234375 -12.328125 C 3.867188 -11.992188 3.40625 -11.828125 2.84375 -11.828125 Z M 4.46875 -10.71875 L 4.46875 0 L 1.1875 0 L 1.1875 -10.71875 Z M 4.46875 -10.71875 "/></g></g></g><g fill="#1e152a" fill-opacity="1"><g transform="translate(73.205704, 66.592971)"><g><path d="M 4.46875 -9.203125 C 4.78125 -9.703125 5.222656 -10.101562 5.796875 -10.40625 C 6.367188 -10.71875 7.03125 -10.875 7.78125 -10.875 C 8.664062 -10.875 9.460938 -10.648438 10.171875 -10.203125 C 10.890625 -9.753906 11.457031 -9.113281 11.875 -8.28125 C 12.289062 -7.445312 12.5 -6.476562 12.5 -5.375 C 12.5 -4.269531 12.289062 -3.296875 11.875 -2.453125 C 11.457031 -1.617188 10.890625 -0.972656 10.171875 -0.515625 C 9.460938 -0.0664062 8.664062 0.15625 7.78125 0.15625 C 7.019531 0.15625 6.359375 0.00390625 5.796875 -0.296875 C 5.234375 -0.597656 4.789062 -1 4.46875 -1.5 L 4.46875 0 L 1.1875 0 L 1.1875 -14.203125 L 4.46875 -14.203125 Z M 9.15625 -5.375 C 9.15625 -6.195312 8.925781 -6.835938 8.46875 -7.296875 C 8.019531 -7.765625 7.460938 -8 6.796875 -8 C 6.140625 -8 5.582031 -7.765625 5.125 -7.296875 C 4.675781 -6.828125 4.453125 -6.179688 4.453125 -5.359375 C 4.453125 -4.535156 4.675781 -3.882812 5.125 -3.40625 C 5.582031 -2.9375 6.140625 -2.703125 6.796875 -2.703125 C 7.453125 -2.703125 8.007812 -2.941406 8.46875 -3.421875 C 8.925781 -3.898438 9.15625 -4.550781 9.15625 -5.375 Z M 9.15625 -5.375 "/></g></g></g><g fill="#1e152a" fill-opacity="1"><g transform="translate(86.239325, 66.592971)"><g><path d="M 4.46875 -8.921875 C 4.851562 -9.515625 5.332031 -9.976562 5.90625 -10.3125 C 6.488281 -10.65625 7.128906 -10.828125 7.828125 -10.828125 L 7.828125 -7.359375 L 6.9375 -7.359375 C 6.113281 -7.359375 5.492188 -7.179688 5.078125 -6.828125 C 4.671875 -6.472656 4.46875 -5.851562 4.46875 -4.96875 L 4.46875 0 L 1.1875 0 L 1.1875 -10.71875 L 4.46875 -10.71875 Z M 4.46875 -8.921875 "/></g></g></g><g fill="#1e152a" fill-opacity="1"><g transform="translate(94.454919, 66.592971)"><g><path d="M 0.53125 -5.375 C 0.53125 -6.476562 0.738281 -7.445312 1.15625 -8.28125 C 1.570312 -9.113281 2.140625 -9.753906 2.859375 -10.203125 C 3.578125 -10.648438 4.378906 -10.875 5.265625 -10.875 C 6.015625 -10.875 6.675781 -10.71875 7.25 -10.40625 C 7.820312 -10.101562 8.257812 -9.703125 8.5625 -9.203125 L 8.5625 -10.71875 L 11.84375 -10.71875 L 11.84375 0 L 8.5625 0 L 8.5625 -1.515625 C 8.238281 -1.015625 7.789062 -0.609375 7.21875 -0.296875 C 6.65625 0.00390625 6 0.15625 5.25 0.15625 C 4.375 0.15625 3.578125 -0.0664062 2.859375 -0.515625 C 2.140625 -0.972656 1.570312 -1.617188 1.15625 -2.453125 C 0.738281 -3.296875 0.53125 -4.269531 0.53125 -5.375 Z M 8.5625 -5.359375 C 8.5625 -6.179688 8.332031 -6.828125 7.875 -7.296875 C 7.425781 -7.765625 6.875 -8 6.21875 -8 C 5.570312 -8 5.019531 -7.765625 4.5625 -7.296875 C 4.101562 -6.835938 3.875 -6.195312 3.875 -5.375 C 3.875 -4.550781 4.101562 -3.898438 4.5625 -3.421875 C 5.019531 -2.941406 5.570312 -2.703125 6.21875 -2.703125 C 6.875 -2.703125 7.425781 -2.9375 7.875 -3.40625 C 8.332031 -3.882812 8.5625 -4.535156 8.5625 -5.359375 Z M 8.5625 -5.359375 "/></g></g></g><g fill="#1e152a" fill-opacity="1"><g transform="translate(107.488539, 66.592971)"><g><path d="M 4.46875 -8.921875 C 4.851562 -9.515625 5.332031 -9.976562 5.90625 -10.3125 C 6.488281 -10.65625 7.128906 -10.828125 7.828125 -10.828125 L 7.828125 -7.359375 L 6.9375 -7.359375 C 6.113281 -7.359375 5.492188 -7.179688 5.078125 -6.828125 C 4.671875 -6.472656 4.46875 -5.851562 4.46875 -4.96875 L 4.46875 0 L 1.1875 0 L 1.1875 -10.71875 L 4.46875 -10.71875 Z M 4.46875 -8.921875 "/></g></g></g><g fill="#1e152a" fill-opacity="1"><g transform="translate(115.704133, 66.592971)"><g><path d="M 12.140625 -10.71875 L 5.421875 5.09375 L 1.875 5.09375 L 4.34375 -0.359375 L -0.015625 -10.71875 L 3.65625 -10.71875 L 6.125 -4.015625 L 8.578125 -10.71875 Z M 12.140625 -10.71875 "/></g></g></g><g fill="#545454" fill-opacity="1"><g transform="translate(58.785732, 80.470995)"><g><path d="M 4.5 -6.671875 L 4.5 -5.953125 L 1.609375 -5.953125 L 1.609375 -3.703125 L 3.953125 -3.703125 L 3.953125 -3 L 1.609375 -3 L 1.609375 0 L 0.734375 0 L 0.734375 -6.671875 Z M 4.5 -6.671875 "/></g></g></g><g fill="#545454" fill-opacity="1"><g transform="translate(63.601429, 80.470995)"><g><path d="M 3.015625 0.09375 C 2.523438 0.09375 2.082031 -0.015625 1.6875 -0.234375 C 1.289062 -0.460938 0.976562 -0.78125 0.75 -1.1875 C 0.519531 -1.601562 0.40625 -2.082031 0.40625 -2.625 C 0.40625 -3.164062 0.519531 -3.640625 0.75 -4.046875 C 0.988281 -4.460938 1.304688 -4.78125 1.703125 -5 C 2.109375 -5.21875 2.5625 -5.328125 3.0625 -5.328125 C 3.5625 -5.328125 4.007812 -5.21875 4.40625 -5 C 4.8125 -4.78125 5.128906 -4.460938 5.359375 -4.046875 C 5.585938 -3.640625 5.703125 -3.164062 5.703125 -2.625 C 5.703125 -2.082031 5.582031 -1.601562 5.34375 -1.1875 C 5.101562 -0.78125 4.78125 -0.460938 4.375 -0.234375 C 3.96875 -0.015625 3.515625 0.09375 3.015625 0.09375 Z M 3.015625 -0.671875 C 3.328125 -0.671875 3.617188 -0.742188 3.890625 -0.890625 C 4.171875 -1.046875 4.394531 -1.269531 4.5625 -1.5625 C 4.726562 -1.851562 4.8125 -2.207031 4.8125 -2.625 C 4.8125 -3.050781 4.726562 -3.410156 4.5625 -3.703125 C 4.40625 -3.992188 4.191406 -4.210938 3.921875 -4.359375 C 3.648438 -4.503906 3.359375 -4.578125 3.046875 -4.578125 C 2.734375 -4.578125 2.441406 -4.503906 2.171875 -4.359375 C 1.910156 -4.210938 1.695312 -3.992188 1.53125 -3.703125 C 1.375 -3.410156 1.296875 -3.050781 1.296875 -2.625 C 1.296875 -2.195312 1.375 -1.835938 1.53125 -1.546875 C 1.6875 -1.253906 1.894531 -1.035156 2.15625 -0.890625 C 2.414062 -0.742188 2.703125 -0.671875 3.015625 -0.671875 Z M 3.015625 -0.671875 "/></g></g></g><g fill="#545454" fill-opacity="1"><g transform="translate(69.716599, 80.470995)"><g><path d="M 5.390625 -5.234375 L 5.390625 0 L 4.515625 0 L 4.515625 -0.78125 C 4.347656 -0.507812 4.113281 -0.296875 3.8125 -0.140625 C 3.519531 0.00390625 3.195312 0.078125 2.84375 0.078125 C 2.4375 0.078125 2.066406 -0.00390625 1.734375 -0.171875 C 1.410156 -0.347656 1.15625 -0.601562 0.96875 -0.9375 C 0.78125 -1.269531 0.6875 -1.679688 0.6875 -2.171875 L 0.6875 -5.234375 L 1.546875 -5.234375 L 1.546875 -2.28125 C 1.546875 -1.769531 1.675781 -1.375 1.9375 -1.09375 C 2.195312 -0.8125 2.554688 -0.671875 3.015625 -0.671875 C 3.472656 -0.671875 3.835938 -0.816406 4.109375 -1.109375 C 4.378906 -1.398438 4.515625 -1.816406 4.515625 -2.359375 L 4.515625 -5.234375 Z M 5.390625 -5.234375 "/></g></g></g><g fill="#545454" fill-opacity="1"><g transform="translate(75.831768, 80.470995)"><g><path d="M 3.296875 -5.328125 C 3.929688 -5.328125 4.445312 -5.132812 4.84375 -4.75 C 5.238281 -4.363281 5.4375 -3.8125 5.4375 -3.09375 L 5.4375 0 L 4.578125 0 L 4.578125 -2.96875 C 4.578125 -3.488281 4.441406 -3.882812 4.171875 -4.15625 C 3.910156 -4.4375 3.554688 -4.578125 3.109375 -4.578125 C 2.648438 -4.578125 2.285156 -4.429688 2.015625 -4.140625 C 1.742188 -3.859375 1.609375 -3.441406 1.609375 -2.890625 L 1.609375 0 L 0.734375 0 L 0.734375 -5.234375 L 1.609375 -5.234375 L 1.609375 -4.5 C 1.773438 -4.757812 2.003906 -4.960938 2.296875 -5.109375 C 2.597656 -5.253906 2.929688 -5.328125 3.296875 -5.328125 Z M 3.296875 -5.328125 "/></g></g></g><g fill="#545454" fill-opacity="1"><g transform="translate(81.946937, 80.470995)"><g><path d="M 0.40625 -2.640625 C 0.40625 -3.171875 0.515625 -3.640625 0.734375 -4.046875 C 0.953125 -4.453125 1.25 -4.765625 1.625 -4.984375 C 2.007812 -5.210938 2.4375 -5.328125 2.90625 -5.328125 C 3.3125 -5.328125 3.691406 -5.234375 4.046875 -5.046875 C 4.398438 -4.859375 4.664062 -4.609375 4.84375 -4.296875 L 4.84375 -7.078125 L 5.734375 -7.078125 L 5.734375 0 L 4.84375 0 L 4.84375 -0.984375 C 4.675781 -0.671875 4.421875 -0.410156 4.078125 -0.203125 C 3.742188 -0.00390625 3.347656 0.09375 2.890625 0.09375 C 2.429688 0.09375 2.007812 -0.0195312 1.625 -0.25 C 1.25 -0.488281 0.953125 -0.8125 0.734375 -1.21875 C 0.515625 -1.632812 0.40625 -2.109375 0.40625 -2.640625 Z M 4.84375 -2.625 C 4.84375 -3.019531 4.765625 -3.363281 4.609375 -3.65625 C 4.453125 -3.957031 4.238281 -4.1875 3.96875 -4.34375 C 3.695312 -4.5 3.394531 -4.578125 3.0625 -4.578125 C 2.738281 -4.578125 2.441406 -4.5 2.171875 -4.34375 C 1.910156 -4.1875 1.695312 -3.960938 1.53125 -3.671875 C 1.375 -3.378906 1.296875 -3.035156 1.296875 -2.640625 C 1.296875 -2.234375 1.375 -1.878906 1.53125 -1.578125 C 1.695312 -1.285156 1.910156 -1.0625 2.171875 -0.90625 C 2.441406 -0.75 2.738281 -0.671875 3.0625 -0.671875 C 3.394531 -0.671875 3.695312 -0.75 3.96875 -0.90625 C 4.238281 -1.0625 4.453125 -1.285156 4.609375 -1.578125 C 4.765625 -1.878906 4.84375 -2.226562 4.84375 -2.625 Z M 4.84375 -2.625 "/></g></g></g><g fill="#545454" fill-opacity="1"><g transform="translate(88.406087, 80.470995)"><g><path d="M 5.515625 -2.828125 C 5.515625 -2.660156 5.503906 -2.484375 5.484375 -2.296875 L 1.296875 -2.296875 C 1.328125 -1.773438 1.503906 -1.367188 1.828125 -1.078125 C 2.148438 -0.796875 2.539062 -0.65625 3 -0.65625 C 3.375 -0.65625 3.6875 -0.738281 3.9375 -0.90625 C 4.195312 -1.082031 4.375 -1.316406 4.46875 -1.609375 L 5.40625 -1.609375 C 5.269531 -1.109375 4.988281 -0.695312 4.5625 -0.375 C 4.144531 -0.0625 3.625 0.09375 3 0.09375 C 2.5 0.09375 2.050781 -0.015625 1.65625 -0.234375 C 1.269531 -0.460938 0.960938 -0.78125 0.734375 -1.1875 C 0.515625 -1.601562 0.40625 -2.082031 0.40625 -2.625 C 0.40625 -3.164062 0.515625 -3.640625 0.734375 -4.046875 C 0.953125 -4.460938 1.253906 -4.78125 1.640625 -5 C 2.035156 -5.21875 2.488281 -5.328125 3 -5.328125 C 3.5 -5.328125 3.9375 -5.21875 4.3125 -5 C 4.695312 -4.78125 4.992188 -4.476562 5.203125 -4.09375 C 5.410156 -3.71875 5.515625 -3.296875 5.515625 -2.828125 Z M 4.625 -3 C 4.625 -3.332031 4.546875 -3.617188 4.390625 -3.859375 C 4.242188 -4.097656 4.046875 -4.28125 3.796875 -4.40625 C 3.546875 -4.53125 3.269531 -4.59375 2.96875 -4.59375 C 2.519531 -4.59375 2.140625 -4.453125 1.828125 -4.171875 C 1.523438 -3.890625 1.351562 -3.5 1.3125 -3 Z M 4.625 -3 "/></g></g></g><g fill="#545454" fill-opacity="1"><g transform="translate(94.330158, 80.470995)"><g><path d="M 0.40625 -2.640625 C 0.40625 -3.171875 0.515625 -3.640625 0.734375 -4.046875 C 0.953125 -4.453125 1.25 -4.765625 1.625 -4.984375 C 2.007812 -5.210938 2.4375 -5.328125 2.90625 -5.328125 C 3.3125 -5.328125 3.691406 -5.234375 4.046875 -5.046875 C 4.398438 -4.859375 4.664062 -4.609375 4.84375 -4.296875 L 4.84375 -7.078125 L 5.734375 -7.078125 L 5.734375 0 L 4.84375 0 L 4.84375 -0.984375 C 4.675781 -0.671875 4.421875 -0.410156 4.078125 -0.203125 C 3.742188 -0.00390625 3.347656 0.09375 2.890625 0.09375 C 2.429688 0.09375 2.007812 -0.0195312 1.625 -0.25 C 1.25 -0.488281 0.953125 -0.8125 0.734375 -1.21875 C 0.515625 -1.632812 0.40625 -2.109375 0.40625 -2.640625 Z M 4.84375 -2.625 C 4.84375 -3.019531 4.765625 -3.363281 4.609375 -3.65625 C 4.453125 -3.957031 4.238281 -4.1875 3.96875 -4.34375 C 3.695312 -4.5 3.394531 -4.578125 3.0625 -4.578125 C 2.738281 -4.578125 2.441406 -4.5 2.171875 -4.34375 C 1.910156 -4.1875 1.695312 -3.960938 1.53125 -3.671875 C 1.375 -3.378906 1.296875 -3.035156 1.296875 -2.640625 C 1.296875 -2.234375 1.375 -1.878906 1.53125 -1.578125 C 1.695312 -1.285156 1.910156 -1.0625 2.171875 -0.90625 C 2.441406 -0.75 2.738281 -0.671875 3.0625 -0.671875 C 3.394531 -0.671875 3.695312 -0.75 3.96875 -0.90625 C 4.238281 -1.0625 4.453125 -1.285156 4.609375 -1.578125 C 4.765625 -1.878906 4.84375 -2.226562 4.84375 -2.625 Z M 4.84375 -2.625 "/></g></g></g><g fill="#545454" fill-opacity="1"><g transform="translate(100.789307, 80.470995)"><g/></g></g><g fill="#545454" fill-opacity="1"><g transform="translate(103.34048, 80.470995)"><g><path d="M 0.359375 -6.125 L 0.359375 -6.90625 L 2.15625 -6.90625 L 2.15625 0 L 1.28125 0 L 1.28125 -6.125 Z M 0.359375 -6.125 "/></g></g></g><g fill="#545454" fill-opacity="1"><g transform="translate(106.398065, 80.470995)"><g><path d="M 1.71875 -1.859375 C 1.78125 -1.492188 1.925781 -1.210938 2.15625 -1.015625 C 2.382812 -0.816406 2.695312 -0.71875 3.09375 -0.71875 C 3.625 -0.71875 4.015625 -0.921875 4.265625 -1.328125 C 4.515625 -1.742188 4.632812 -2.445312 4.625 -3.4375 C 4.488281 -3.144531 4.265625 -2.914062 3.953125 -2.75 C 3.640625 -2.59375 3.296875 -2.515625 2.921875 -2.515625 C 2.492188 -2.515625 2.109375 -2.601562 1.765625 -2.78125 C 1.429688 -2.957031 1.171875 -3.210938 0.984375 -3.546875 C 0.796875 -3.878906 0.703125 -4.285156 0.703125 -4.765625 C 0.703125 -5.453125 0.898438 -6.003906 1.296875 -6.421875 C 1.691406 -6.835938 2.25 -7.046875 2.96875 -7.046875 C 3.863281 -7.046875 4.488281 -6.753906 4.84375 -6.171875 C 5.207031 -5.597656 5.390625 -4.734375 5.390625 -3.578125 C 5.390625 -2.773438 5.316406 -2.113281 5.171875 -1.59375 C 5.035156 -1.070312 4.796875 -0.671875 4.453125 -0.390625 C 4.109375 -0.117188 3.640625 0.015625 3.046875 0.015625 C 2.398438 0.015625 1.894531 -0.160156 1.53125 -0.515625 C 1.164062 -0.867188 0.957031 -1.316406 0.90625 -1.859375 Z M 3.0625 -3.25 C 3.488281 -3.25 3.835938 -3.378906 4.109375 -3.640625 C 4.378906 -3.910156 4.515625 -4.269531 4.515625 -4.71875 C 4.515625 -5.195312 4.378906 -5.582031 4.109375 -5.875 C 3.847656 -6.175781 3.476562 -6.328125 3 -6.328125 C 2.550781 -6.328125 2.191406 -6.1875 1.921875 -5.90625 C 1.660156 -5.625 1.53125 -5.253906 1.53125 -4.796875 C 1.53125 -4.328125 1.660156 -3.953125 1.921875 -3.671875 C 2.179688 -3.390625 2.5625 -3.25 3.0625 -3.25 Z M 3.0625 -3.25 "/></g></g></g><g fill="#545454" fill-opacity="1"><g transform="translate(112.417683, 80.470995)"><g><path d="M 1.71875 -1.859375 C 1.78125 -1.492188 1.925781 -1.210938 2.15625 -1.015625 C 2.382812 -0.816406 2.695312 -0.71875 3.09375 -0.71875 C 3.625 -0.71875 4.015625 -0.921875 4.265625 -1.328125 C 4.515625 -1.742188 4.632812 -2.445312 4.625 -3.4375 C 4.488281 -3.144531 4.265625 -2.914062 3.953125 -2.75 C 3.640625 -2.59375 3.296875 -2.515625 2.921875 -2.515625 C 2.492188 -2.515625 2.109375 -2.601562 1.765625 -2.78125 C 1.429688 -2.957031 1.171875 -3.210938 0.984375 -3.546875 C 0.796875 -3.878906 0.703125 -4.285156 0.703125 -4.765625 C 0.703125 -5.453125 0.898438 -6.003906 1.296875 -6.421875 C 1.691406 -6.835938 2.25 -7.046875 2.96875 -7.046875 C 3.863281 -7.046875 4.488281 -6.753906 4.84375 -6.171875 C 5.207031 -5.597656 5.390625 -4.734375 5.390625 -3.578125 C 5.390625 -2.773438 5.316406 -2.113281 5.171875 -1.59375 C 5.035156 -1.070312 4.796875 -0.671875 4.453125 -0.390625 C 4.109375 -0.117188 3.640625 0.015625 3.046875 0.015625 C 2.398438 0.015625 1.894531 -0.160156 1.53125 -0.515625 C 1.164062 -0.867188 0.957031 -1.316406 0.90625 -1.859375 Z M 3.0625 -3.25 C 3.488281 -3.25 3.835938 -3.378906 4.109375 -3.640625 C 4.378906 -3.910156 4.515625 -4.269531 4.515625 -4.71875 C 4.515625 -5.195312 4.378906 -5.582031 4.109375 -5.875 C 3.847656 -6.175781 3.476562 -6.328125 3 -6.328125 C 2.550781 -6.328125 2.191406 -6.1875 1.921875 -5.90625 C 1.660156 -5.625 1.53125 -5.253906 1.53125 -4.796875 C 1.53125 -4.328125 1.660156 -3.953125 1.921875 -3.671875 C 2.179688 -3.390625 2.5625 -3.25 3.0625 -3.25 Z M 3.0625 -3.25 "/></g></g></g><g fill="#545454" fill-opacity="1"><g transform="translate(118.4373, 80.470995)"><g><path d="M 5 -6.15625 L 1.640625 -6.15625 L 1.640625 -3.984375 C 1.785156 -4.179688 2 -4.34375 2.28125 -4.46875 C 2.570312 -4.601562 2.882812 -4.671875 3.21875 -4.671875 C 3.75 -4.671875 4.179688 -4.5625 4.515625 -4.34375 C 4.847656 -4.125 5.082031 -3.835938 5.21875 -3.484375 C 5.363281 -3.140625 5.4375 -2.773438 5.4375 -2.390625 C 5.4375 -1.929688 5.347656 -1.519531 5.171875 -1.15625 C 5.003906 -0.789062 4.742188 -0.503906 4.390625 -0.296875 C 4.035156 -0.0859375 3.597656 0.015625 3.078125 0.015625 C 2.410156 0.015625 1.867188 -0.15625 1.453125 -0.5 C 1.035156 -0.84375 0.785156 -1.300781 0.703125 -1.875 L 1.546875 -1.875 C 1.628906 -1.507812 1.804688 -1.222656 2.078125 -1.015625 C 2.347656 -0.816406 2.6875 -0.71875 3.09375 -0.71875 C 3.59375 -0.71875 3.96875 -0.867188 4.21875 -1.171875 C 4.476562 -1.472656 4.609375 -1.875 4.609375 -2.375 C 4.609375 -2.875 4.476562 -3.257812 4.21875 -3.53125 C 3.96875 -3.800781 3.59375 -3.9375 3.09375 -3.9375 C 2.757812 -3.9375 2.46875 -3.851562 2.21875 -3.6875 C 1.96875 -3.519531 1.78125 -3.296875 1.65625 -3.015625 L 0.84375 -3.015625 L 0.84375 -6.921875 L 5 -6.921875 Z M 5 -6.15625 "/></g></g></g></svg>