<svg width="1440" height="416" viewBox="0 0 1440 416" fill="none" xmlns="http://www.w3.org/2000/svg">
<path fill-rule="evenodd" clip-rule="evenodd" d="M26.7 24.3029L0 35.0029V259V259.003V355L26.7 344.3C27.6148 343.946 28.5616 343.578 29.5393 343.198C56.9926 332.526 108.823 312.378 160 323C192.364 329.679 224.875 347.788 257.287 365.841C278.255 377.52 299.181 389.176 320 397.7C373.3 419 427 419 480 408.3C495.802 405.246 511.639 401.164 527.483 397.081C565.079 387.39 602.713 377.69 640 381.7C660.511 383.74 681.081 389.733 701.648 395.726C734.526 405.305 767.396 414.882 800 408.3C826.705 403.139 853.511 387.008 880.279 370.9C906.936 354.858 933.555 338.839 960 333.7C998.912 325.888 1038.04 340.835 1076.95 355.699C1091.33 361.196 1105.69 366.681 1120 371C1173.3 387 1227 387 1280 376.3C1330.31 366.578 1380.98 346.431 1408.37 335.539C1410 334.892 1411.54 334.278 1413 333.7L1440 323V259.003V259V3.00286L1413 13.7029C1411.54 14.2804 1410 14.8948 1408.37 15.5418C1380.98 26.4334 1330.31 46.5804 1280 56.3029C1227 67.0029 1173.3 67.0029 1120 51.0029C1105.69 46.6837 1091.33 41.1985 1076.95 35.7022C1038.04 20.8378 998.912 5.89132 960 13.7029C933.555 18.8421 906.936 34.861 880.279 50.9025C853.511 67.0109 826.705 83.1421 800 88.3029C767.396 94.8852 734.526 85.3082 701.648 75.7285C681.081 69.736 660.511 63.7424 640 61.7029C602.713 57.6927 565.079 67.3928 527.482 77.0835C511.639 81.1672 495.802 85.2492 480 88.3029C427 99.0029 373.3 99.0029 320 77.7029C299.181 69.179 278.255 57.5231 257.287 45.8441C224.875 27.7906 192.364 9.68204 160 3.00286C108.823 -7.61886 56.9925 12.5288 29.5393 23.2006C28.5615 23.5806 27.6147 23.9487 26.7 24.3029Z" fill="white"/>
</svg>
